<?xml version="1.0" encoding="UTF-8"?>
<!DOCTYPE svg PUBLIC "-//W3C//DTD SVG 1.1//EN" "http://www.w3.org/Graphics/SVG/1.1/DTD/svg11.dtd">
<!-- Creator: CorelDRAW -->
<svg xmlns="http://www.w3.org/2000/svg" xml:space="preserve" width="20mm" height="25mm" style="shape-rendering:geometricPrecision; text-rendering:geometricPrecision; image-rendering:optimizeQuality; fill-rule:evenodd; clip-rule:evenodd"
viewBox="0 0 8.82021 11.0253"
 xmlns:xlink="http://www.w3.org/1999/xlink">
 <defs>
  <style type="text/css">
   <![CDATA[
    .str2 {stroke:#0049BF;stroke-width:0.033605}
    .str1 {stroke:#0049BF;stroke-width:0.0882021}
    .str0 {stroke:#99FF00;stroke-width:0.0882021}
    .fil32 {fill:#0049BF}
    .fil1 {fill:#FEFEFE;fill-rule:nonzero}
    .fil16 {fill:blue;fill-rule:nonzero}
    .fil19 {fill:#7D7D7D;fill-rule:nonzero}
    .fil15 {fill:#8D8D8D;fill-rule:nonzero}
    .fil17 {fill:#CCCCCC;fill-rule:nonzero}
    .fil2 {fill:#8D8D8D;fill-rule:nonzero;fill-opacity:0.000000}
    .fil31 {fill:#A7A7A7;fill-rule:nonzero;fill-opacity:0.000000}
    .fil3 {fill:#8D8D8D;fill-rule:nonzero;fill-opacity:0.078431}
    .fil30 {fill:#A3A3A3;fill-rule:nonzero;fill-opacity:0.078431}
    .fil4 {fill:#8D8D8D;fill-rule:nonzero;fill-opacity:0.152941}
    .fil29 {fill:#A0A0A0;fill-rule:nonzero;fill-opacity:0.152941}
    .fil5 {fill:#8D8D8D;fill-rule:nonzero;fill-opacity:0.231373}
    .fil28 {fill:#9E9E9E;fill-rule:nonzero;fill-opacity:0.231373}
    .fil6 {fill:#8D8D8D;fill-rule:nonzero;fill-opacity:0.305882}
    .fil27 {fill:#989898;fill-rule:nonzero;fill-opacity:0.305882}
    .fil7 {fill:#8D8D8D;fill-rule:nonzero;fill-opacity:0.384314}
    .fil26 {fill:#979797;fill-rule:nonzero;fill-opacity:0.384314}
    .fil8 {fill:#8D8D8D;fill-rule:nonzero;fill-opacity:0.462745}
    .fil25 {fill:#929292;fill-rule:nonzero;fill-opacity:0.462745}
    .fil9 {fill:#8D8D8D;fill-rule:nonzero;fill-opacity:0.537255}
    .fil24 {fill:#8F8F8F;fill-rule:nonzero;fill-opacity:0.537255}
    .fil10 {fill:#8D8D8D;fill-rule:nonzero;fill-opacity:0.615686}
    .fil23 {fill:#8A8A8A;fill-rule:nonzero;fill-opacity:0.694118}
    .fil11 {fill:#8D8D8D;fill-rule:nonzero;fill-opacity:0.694118}
    .fil22 {fill:#868686;fill-rule:nonzero;fill-opacity:0.768627}
    .fil12 {fill:#8D8D8D;fill-rule:nonzero;fill-opacity:0.768627}
    .fil21 {fill:#838383;fill-rule:nonzero;fill-opacity:0.847059}
    .fil13 {fill:#8D8D8D;fill-rule:nonzero;fill-opacity:0.847059}
    .fil20 {fill:#7F7F7F;fill-rule:nonzero;fill-opacity:0.921569}
    .fil14 {fill:#8D8D8D;fill-rule:nonzero;fill-opacity:0.921569}
    .fil0 {fill:url(#id3)}
    .fil18 {fill:url(#id4);fill-rule:nonzero}
   ]]>
  </style>
    <clipPath id="id0">
     <path d="M1.80832 4.05306l4.1589 0 0 0.890047 -4.1589 0 0 -0.890047z"/>
    </clipPath>
    <clipPath id="id1">
     <path d="M1.80832 3.36491l4.1589 0 0 0.890135 -4.1589 0 0 -0.890135z"/>
    </clipPath>
    <clipPath id="id2">
     <path d="M1.83959 2.70644l4.09258 0 0 0.829056 -4.09258 0 0 -0.829056z"/>
    </clipPath>
  <linearGradient id="id3" gradientUnits="userSpaceOnUse" x1="10.0233" y1="-16.092" x2="222.544" y2="-16.092">
   <stop offset="0" style="stop-color:#0FA89D"/>
   <stop offset="1" style="stop-color:#B6D66D"/>
  </linearGradient>
  <linearGradient id="id4" gradientUnits="userSpaceOnUse" x1="6.63425" y1="4.15754" x2="1.22676" y2="3.55679">
   <stop offset="0" style="stop-color:#F8F7EC"/>
   <stop offset="1" style="stop-color:#7F7F7D"/>
  </linearGradient>
 </defs>
<symbol id="Fm1-6-0" viewBox="10.0233 -70.9514 212.521 109.719">
 <polygon class="fil0" points="10.0233,38.7674 222.544,38.7674 222.544,-70.9514 10.0233,-70.9514 "/>
</symbol>
<symbol id="Fm3-10-0" viewBox="130.586 -53.4507 16.4133 3.88949">
 <path class="fil1" d="M146.789 -53.4507l-4.79325 0 -0.291067 0 -10.9381 0c-0.0569344,0 -0.181255,0.0897897 -0.181255,0.146239l0 3.68442c0,0.0568021 0.124321,0.0588308 0.181255,0.0588308l10.9381 0 0.291067 0 4.79325 0c0.056758,0 0.209568,-0.0897897 0.209568,-0.146239l0 -3.68442c0,-0.0568021 -0.15281,-0.0588308 -0.209568,-0.0588308z"/>
</symbol>
<symbol id="Fm2-8-0" viewBox="83.1154 -53.5327 45.9903 4.05359">
 <path class="fil1" d="M129.106 -50.8387c0,0.75082 -0.608639,1.35959 -1.35933,1.35959l-43.2714 0c-0.75082,0 -1.35964,-0.608771 -1.35964,-1.35959l0 -1.33454c0,-0.750512 0.608815,-1.35946 1.35964,-1.35946l43.2714 0c0.750688,0 1.35933,0.608947 1.35933,1.35946l0 1.33454z"/>
</symbol>
 <g id="Capa_x0020_1">
  <metadata id="CorelCorpID_0Corel-Layer"/>
  <g id="_281020040">
   <path id="_281021000" class="fil2" d="M8.82021 4.772c0,3.325 -4.69244,6.24744 -4.69244,6.24744 0,0 -3.22074,-3.27446 -3.22074,-6.262 0,-2.2148 1.73626,-4.46175 3.87322,-4.46175 2.13709,0 4.03996,2.2615 4.03996,4.4763z"/>
   <path id="_281020928" class="fil3" d="M8.73805 4.71634c0,3.325 -4.62902,6.29516 -4.62902,6.29516 0,0 -3.27067,-3.32107 -3.27067,-6.30857 0,-2.2148 1.73591,-4.427 3.87295,-4.427 2.13709,0 4.02673,2.22565 4.02673,4.4404z"/>
   <path id="_281020856" class="fil4" d="M8.65598 4.66077c0,3.32495 -4.56583,6.34266 -4.56583,6.34266 0,0 -3.32046,-3.36747 -3.32046,-6.35505 0,-2.21475 1.73546,-4.3922 3.87256,-4.3922 2.13705,0 4.01372,2.18979 4.01372,4.40459z"/>
   <path id="_281020784" class="fil5" d="M8.57386 4.60508c0,3.325 -4.5025,6.39033 -4.5025,6.39033 0,0 -3.37042,-3.41391 -3.37042,-6.4014 0,-2.21484 1.73529,-4.35749 3.87229,-4.35749 2.13705,0 4.00063,2.15385 4.00063,4.36856z"/>
   <path id="_281020712" class="fil6" d="M8.49183 4.54955c0,3.32495 -4.43934,6.43778 -4.43934,6.43778 0,0 -3.42034,-3.46039 -3.42034,-6.44784 0,-2.21489 1.73498,-4.32274 3.87207,-4.32274 2.13714,0 3.98762,2.11795 3.98762,4.3328z"/>
   <path id="_281020640" class="fil7" d="M8.40958 4.4939c0,3.325 -4.37597,6.48541 -4.37597,6.48541 0,0 -3.47009,-3.50683 -3.47009,-6.49432 0,-2.21484 1.73463,-4.28803 3.87167,-4.28803 2.13705,0 3.97439,2.08219 3.97439,4.29694z"/>
   <path id="_281020568" class="fil8" d="M8.32747 4.43828c0,3.32504 -4.31264,6.533 -4.31264,6.533 0,0 -3.5201,-3.55327 -3.5201,-6.54085 0,-2.2148 1.73449,-4.25324 3.87154,-4.25324 2.13696,0 3.9612,2.04629 3.9612,4.26109z"/>
   <path id="_281020496" class="fil9" d="M8.2454 4.38267c0,3.32495 -4.24936,6.58063 -4.24936,6.58063 0,0 -3.57002,-3.59979 -3.57002,-6.58733 0,-2.2148 1.7341,-4.21849 3.87115,-4.21849 2.13714,0 3.94823,2.01043 3.94823,4.22519z"/>
   <path id="_281020424" class="fil10" d="M8.16328 4.32706c0,3.325 -4.18612,6.62812 -4.18612,6.62812 0,0 -3.61986,-3.64619 -3.61986,-6.63372 0,-2.21484 1.73379,-4.18373 3.87084,-4.18373 2.13714,0 3.93514,1.97458 3.93514,4.18933z"/>
   <path id="_281020352" class="fil11" d="M8.08112 4.27141c0,3.32495 -4.12279,6.6758 -4.12279,6.6758 0,0 -3.66974,-3.69267 -3.66974,-6.68025 0,-2.2148 1.73357,-4.14894 3.87062,-4.14894 2.137,0 3.92191,1.93868 3.92191,4.15339z"/>
   <path id="_281020280" class="fil12" d="M7.99909 4.21584c0,3.32495 -4.05955,6.72334 -4.05955,6.72334 0,0 -3.7197,-3.73906 -3.7197,-6.72673 0,-2.21475 1.73326,-4.11423 3.87031,-4.11423 2.13714,0 3.90894,1.90283 3.90894,4.11763z"/>
   <path id="_281020208" class="fil13" d="M7.91698 4.16023c0,3.32495 -3.99622,6.77088 -3.99622,6.77088 0,0 -3.76958,-3.78555 -3.76958,-6.77317 0,-2.21471 1.73295,-4.07943 3.86995,-4.07943 2.13714,0 3.89584,1.86697 3.89584,4.08173z"/>
   <path id="_281020136" class="fil14" d="M7.8349 4.10457c0,3.32504 -3.93311,6.81851 -3.93311,6.81851 0,0 -3.81933,-3.83198 -3.81933,-6.81956 0,-2.21484 1.73255,-4.04477 3.86965,-4.04477 2.13705,0 3.88279,1.83108 3.88279,4.04583z"/>
   <path id="_281020088" class="fil15" d="M7.75274 4.04896c0,3.32495 -3.86973,6.86618 -3.86973,6.86618 0,0 -3.86934,-3.87851 -3.86934,-6.86618 0,-2.21475 1.73238,-4.00998 3.86943,-4.00998 2.13714,0 3.86965,1.79522 3.86965,4.00998z"/>
  </g>
  <path class="fil16 str0" d="M7.80006 4.07326c0,3.32487 -3.8696,6.86614 -3.8696,6.86614 0,0 -3.86947,-3.87864 -3.86947,-6.86614 0,-2.21484 1.73247,-4.01002 3.86951,-4.01002 2.13709,0 3.86956,1.79518 3.86956,4.01002z"/>
  <path class="fil17" d="M3.92865 11.0253l-0.0406612 -0.0405289c-0.158676,-0.159072 -3.88799,-3.93139 -3.88799,-6.91147 0,-2.24598 1.7632,-4.07326 3.93051,-4.07326 2.16721,0 3.93051,1.82728 3.93051,4.07326 0,3.31508 -3.85117,6.87773 -3.88993,6.91337l-0.0424252 0.0386325zm0.00185224 -10.8988l0 0c-2.09992,0 -3.80848,1.77052 -3.80848,3.94682 0,2.76253 3.39763,6.3532 3.8102,6.77904 0.41993,-0.398056 3.80689,-3.70749 3.80689,-6.77904 0,-2.1763 -1.70847,-3.94682 -3.80861,-3.94682z"/>
  <path class="fil18" d="M6.61533 3.85725c0,1.53661 -1.20193,2.78211 -2.68483,2.78211 -1.48277,0 -2.68478,-1.2455 -2.68478,-2.78211 0,-1.53657 1.20202,-2.78225 2.68478,-2.78225 1.4829,0 2.68483,1.24568 2.68483,2.78225z"/>
  <path class="fil17" d="M3.93051 6.70261c-1.51408,0 -2.74573,-1.27642 -2.74573,-2.84536 0,-1.56889 1.23165,-2.84544 2.74573,-2.84544 1.51412,0 2.74591,1.27655 2.74591,2.84544 0,1.56894 -1.23179,2.84536 -2.74591,2.84536zm0 -5.56427l0 0c-1.44669,0 -2.62353,1.21957 -2.62353,2.71892 0,1.49939 1.17684,2.71887 2.62353,2.71887 1.44682,0 2.62375,-1.21948 2.62375,-2.71887 0,-1.49935 -1.17692,-2.71892 -2.62375,-2.71892z"/>
  <g id="_280739696">
   <path id="_281019680" class="fil19" d="M1.82173 4.20301c0,-1.46927 1.16427,-2.66031 2.60051,-2.66031 0.464075,0 0.899353,0.12485 1.27628,0.342577 -0.464649,-0.444053 -1.08824,-0.716421 -1.77449,-0.716421 -1.43624,0 -2.60051,1.19113 -2.60051,2.6604 0,0.994567 0.533755,1.86106 1.324,2.3176 -0.507912,-0.485552 -0.825792,-1.17644 -0.825792,-1.94384z"/>
   <path id="_281019608" class="fil20" d="M1.83685 4.21244c0,-1.46923 1.16431,-2.66031 2.60051,-2.66031 0.464075,0 0.899353,0.12485 1.27633,0.342665 -0.464693,-0.444142 -1.08833,-0.716466 -1.77454,-0.716466 -1.43624,0 -2.60051,1.19108 -2.60051,2.6604 0,0.994655 0.533755,1.86115 1.32405,2.31764 -0.507912,-0.485597 -0.825836,-1.17644 -0.825836,-1.94393z"/>
   <path id="_281019536" class="fil21" d="M1.85207 4.22197c0,-1.46918 1.16422,-2.66026 2.60051,-2.66026 0.464075,0 0.899176,0.12485 1.27633,0.342577 -0.464781,-0.444098 -1.08837,-0.716466 -1.77463,-0.716466 -1.43619,0 -2.60051,1.19113 -2.60051,2.66044 0,0.994567 0.533843,1.86102 1.32413,2.3176 -0.507956,-0.485597 -0.825836,-1.17648 -0.825836,-1.94389z"/>
   <path id="_281019464" class="fil22" d="M1.86719 4.2315c0,-1.46927 1.16422,-2.66035 2.60055,-2.66035 0.464031,0 0.899264,0.124894 1.27628,0.342621 -0.464781,-0.444098 -1.08837,-0.716421 -1.77454,-0.716421 -1.43624,0 -2.60064,1.19113 -2.60064,2.6604 0,0.994567 0.533931,1.86106 1.32418,2.3176 -0.507912,-0.485597 -0.825836,-1.17644 -0.825836,-1.94384z"/>
   <path id="_281019392" class="fil23" d="M1.88236 4.24098c0,-1.46923 1.16418,-2.66035 2.60051,-2.66035 0.464075,0 0.899264,0.124894 1.27628,0.342665 -0.464649,-0.444142 -1.08837,-0.716421 -1.77449,-0.716421 -1.43624,0 -2.60059,1.19108 -2.60059,2.66035 0,0.994611 0.533887,1.86115 1.32409,2.31764 -0.507824,-0.485597 -0.825792,-1.17653 -0.825792,-1.94389z"/>
   <path id="_281019320" class="fil10" d="M1.89758 4.25046c0,-1.46923 1.16418,-2.66031 2.60042,-2.66031 0.464163,0 0.899264,0.124894 1.27637,0.342621 -0.464737,-0.444142 -1.08837,-0.716466 -1.77463,-0.716466 -1.43619,0 -2.60055,1.19113 -2.60055,2.6604 0,0.994611 0.533931,1.86106 1.32418,2.31764 -0.507912,-0.485597 -0.825792,-1.17653 -0.825792,-1.94389z"/>
   <path id="_280740200" class="fil24" d="M1.91271 4.25998c0,-1.46931 1.16422,-2.66035 2.60042,-2.66035 0.464163,0 0.899264,0.12485 1.27642,0.342621 -0.464781,-0.444186 -1.08837,-0.716466 -1.77463,-0.716466 -1.43619,0 -2.60059,1.19113 -2.60059,2.66044 0,0.994567 0.533931,1.86106 1.32422,2.3176 -0.507956,-0.485597 -0.825836,-1.17648 -0.825836,-1.94384z"/>
   <path id="_280740128" class="fil25" d="M1.92783 4.26947c0,-1.46923 1.16422,-2.66035 2.60051,-2.66035 0.464075,0 0.899264,0.124894 1.27633,0.342665 -0.464693,-0.444186 -1.08837,-0.716466 -1.77454,-0.716466 -1.43624,0 -2.60068,1.19113 -2.60068,2.66035 0,0.994655 0.53402,1.8612 1.32422,2.31764 -0.507868,-0.485552 -0.825836,-1.17648 -0.825836,-1.94384z"/>
   <path id="_280740056" class="fil26" d="M1.943 4.27899c0,-1.46927 1.16418,-2.6604 2.60051,-2.6604 0.464075,0 0.899264,0.124894 1.27628,0.342665 -0.464693,-0.444142 -1.08837,-0.716466 -1.77454,-0.716466 -1.43624,0 -2.60068,1.19113 -2.60068,2.6604 0,0.994611 0.53402,1.86115 1.32422,2.3176 -0.507824,-0.485552 -0.825792,-1.17648 -0.825792,-1.9438z"/>
   <path id="_280739984" class="fil27" d="M1.95822 4.28843c0,-1.46927 1.16418,-2.66035 2.60042,-2.66035 0.464163,0 0.899264,0.12485 1.27637,0.342665 -0.464781,-0.444186 -1.08837,-0.716466 -1.77463,-0.716466 -1.43619,0 -2.60064,1.19108 -2.60064,2.6604 0,0.994611 0.53402,1.86106 1.32427,2.31764 -0.507956,-0.485597 -0.825792,-1.17648 -0.825792,-1.94389z"/>
   <path id="_280739912" class="fil28" d="M1.97326 4.29796c0,-1.46923 1.16431,-2.66035 2.60059,-2.66035 0.464075,0 0.899176,0.12485 1.27633,0.342621 -0.464737,-0.444186 -1.08837,-0.716466 -1.77463,-0.716466 -1.43624,0 -2.60059,1.19113 -2.60059,2.6604 0,0.994655 0.533931,1.86115 1.32422,2.31764 -0.507956,-0.485508 -0.825924,-1.17653 -0.825924,-1.94384z"/>
   <path id="_280739840" class="fil29" d="M1.98838 4.30748c0,-1.46931 1.16431,-2.6604 2.60059,-2.6604 0.463987,0 0.899264,0.124894 1.27633,0.342621 -0.464693,-0.444142 -1.08837,-0.716421 -1.77454,-0.716421 -1.43633,0 -2.60068,1.19113 -2.60068,2.66035 0,0.994655 0.533931,1.8612 1.32418,2.31764 -0.507912,-0.485552 -0.82588,-1.17648 -0.82588,-1.9438z"/>
   <path id="_280739768" class="fil30" d="M2.0036 4.31696c0,-1.46927 1.16431,-2.6604 2.60059,-2.6604 0.463987,0 0.89922,0.124894 1.27633,0.342665 -0.464737,-0.444186 -1.08837,-0.716421 -1.77463,-0.716421 -1.43628,0 -2.60068,1.19108 -2.60068,2.66035 0,0.994611 0.53402,1.86106 1.32431,2.3176 -0.507956,-0.485552 -0.825924,-1.17653 -0.825924,-1.9438z"/>
   <path id="_280739744" class="fil31" d="M2.01873 4.32644c0,-1.46927 1.16431,-2.66035 2.60059,-2.66035 0.463987,0 0.899176,0.12485 1.27633,0.342621 -0.464693,-0.444186 -1.08837,-0.716466 -1.77471,-0.716466 -1.43619,0 -2.60055,1.19113 -2.60055,2.6604 0,0.994655 0.533975,1.86115 1.32427,2.3176 -0.507956,-0.485552 -0.825924,-1.17648 -0.825924,-1.9438z"/>
  </g>
  <g id="_280739576">
   <g style="clip-path:url(#id0)">
    <image id="_281024720" transform="matrix(1 0 0 1 -8.19168 -33.6687)" x="10" y="37.7217" width="4.1589" height="0.890047" xlink:href="hidraulica2_Images\hidraulica2_ImgID1.png"/>
   </g>
  </g>
  <path class="fil32 str1" d="M1.91046 4.27361l0 0.0578606c0.0358983,0.047585 0.0212126,0.0624912 0.0816751,0.0967577l0.342577 0.188797c0.274176,0.152766 0.458122,0.253272 0.78985,0.0456887l0.22443 -0.12926c0.0999771,-0.0498342 0.195676,-0.0367362 0.286745,0.00807049 0.077706,0.0382356 0.157264,0.076383 0.23647,0.117265 0.174993,0.0903189 0.325951,0.166129 0.564185,0.0905394 0.160175,-0.0508044 0.346811,-0.228884 0.46284,-0.242203 0.125688,-0.014421 0.185224,0.0310912 0.273647,0.0766035 0.0765153,0.0393381 0.158102,0.0805726 0.234838,0.118235 0.0801757,0.0393822 0.15797,0.0811459 0.236293,0.118367 0.0463943,0.0220505 0.0904071,0.0311353 0.142799,0.00339578 0.0583898,-0.0309589 0.0481142,-0.0456887 0.0782794,-0.0974633l0 -0.0540679c-0.0128775,-0.0211244 -0.0124806,-0.0370449 -0.0307384,-0.0616092 -0.035369,-0.0475409 -0.347737,-0.192986 -0.401805,-0.217374 -0.168775,-0.0762066 -0.298388,-0.192148 -0.533843,-0.172744 -0.115545,0.00952583 -0.185621,0.0382797 -0.269237,0.0899661 -0.0771768,0.0477173 -0.146901,0.0884667 -0.218829,0.135214 -0.3125,0.203174 -0.61543,-0.344694 -1.08621,-0.208333 -0.0956993,0.0277396 -0.156382,0.0691504 -0.238146,0.115501 -0.228708,0.129569 -0.267517,0.201321 -0.504428,0.0734282 -0.137772,-0.0743544 -0.325951,-0.188267 -0.455387,-0.251949 -0.049746,-0.0245202 -0.0926563,-0.0263724 -0.140859,-0.000132303 -0.0585221,0.0317969 -0.0470558,0.0477614 -0.0751482,0.0994479z"/>
  <g id="_280739336">
   <g style="clip-path:url(#id1)">
    <image id="_281024816" transform="matrix(1 0 0 1 -8.19168 -34.3567)" x="10" y="37.7217" width="4.1589" height="0.890135" xlink:href="hidraulica2_Images\hidraulica2_ImgID2.png"/>
   </g>
  </g>
  <path class="fil32 str1" d="M1.91046 3.57655l0 0.0666808c0.0315322,0.0438364 0.027475,0.0656224 0.0777501,0.0943321l0.342268 0.1884c0.29261,0.163659 0.451154,0.250185 0.790291,0.0508044 0.0721493,-0.0424252 0.152193,-0.0918625 0.223725,-0.129348 0.0963608,-0.0505398 0.191795,-0.0415432 0.287142,0.00299887 0.283393,0.132259 0.490668,0.307869 0.79523,0.213405 0.0950378,-0.0294595 0.157308,-0.0773091 0.232016,-0.122028 0.058478,-0.0349721 0.160616,-0.110561 0.229678,-0.121763 0.118676,-0.0193163 0.194706,0.0277837 0.276293,0.0702971l0.470558 0.237308c0.0424693,0.020507 0.0875406,0.038412 0.143593,0.0121719 0.0337373,-0.0158323 0.0506721,-0.0329435 0.0681361,-0.0639906l0.0179491 -0.0294595 0 -0.0665485c-0.0116427,-0.0172435 -0.018346,-0.0418519 -0.0306061,-0.0578165 -0.0317969,-0.0417196 -0.117353,-0.0748836 -0.165776,-0.0993597 -0.078985,-0.0399114 -0.155324,-0.0795142 -0.235676,-0.118367 -0.162689,-0.0786322 -0.308796,-0.188223 -0.534769,-0.172744 -0.174067,0.0119073 -0.329567,0.12463 -0.483392,0.223328 -0.18174,0.116603 -0.319909,0.00480701 -0.519422,-0.0928768 -0.180153,-0.0882021 -0.308531,-0.174817 -0.560524,-0.115236 -0.101609,0.0240792 -0.161278,0.0692386 -0.240218,0.11334 -0.0563611,0.0314881 -0.181564,0.109194 -0.226856,0.127452 -0.0448508,0.0180814 -0.107518,0.019184 -0.156912,0.0101432 -0.0730313,-0.0134067 -0.478188,-0.256889 -0.576268,-0.307649 -0.0469235,-0.0242997 -0.0866145,-0.0325466 -0.140594,-0.00873201 -0.0618738,0.0272985 -0.0511572,0.0482465 -0.0836156,0.0952583z"/>
  <g id="_280739096">
   <g style="clip-path:url(#id2)">
    <image id="_281025896" transform="matrix(1 0 0 1 -8.16041 -35.0763)" x="10" y="37.7827" width="4.09258" height="0.829056" xlink:href="hidraulica2_Images\hidraulica2_ImgID3.png"/>
   </g>
  </g>
  <path class="fil32 str2" d="M1.91046 2.9015l0 0.0400878 0.00692386 0.0142005c0.0364716,0.0860852 0.0617415,0.0920389 0.181079,0.153516 0.126614,0.0651372 0.365906,0.212214 0.462576,0.251596 0.0917743,0.0374418 0.205246,0.0470999 0.315631,0.0301651 0.108356,-0.0166261 0.166129,-0.0616533 0.247627,-0.105666 0.177639,-0.0959639 0.305885,-0.231222 0.515718,-0.11947 0.0810136,0.0431308 0.159734,0.0802639 0.239954,0.120131 0.221564,0.109988 0.432058,0.189193 0.688109,0.0216536 0.0347516,-0.022712 0.068974,-0.0416755 0.109591,-0.0671659 0.0721493,-0.0452477 0.142402,-0.103196 0.248112,-0.112414 0.109944,-0.00956993 0.186018,0.0490845 0.263812,0.0865262l0.357924 0.179403c0.0406612,0.0194045 0.083351,0.0451154 0.121851,0.0605066 0.102755,0.0410581 0.205114,-0.0493491 0.190517,-0.150914 -0.0181696,-0.106636 -0.11087,-0.127143 -0.196338,-0.170671 -0.139095,-0.0707822 -0.338564,-0.176228 -0.471308,-0.236602 -0.195368,-0.0889077 -0.383194,-0.0696797 -0.561803,0.037971 -0.0787204,0.0474968 -0.149326,0.0917302 -0.218741,0.134949 -0.0800875,0.0498783 -0.191222,0.0656224 -0.283702,0.0196691 -0.0785881,-0.0390294 -0.156559,-0.079867 -0.236602,-0.117485 -0.177374,-0.0834392 -0.312544,-0.178609 -0.566919,-0.110429 -0.148268,0.039735 -0.37799,0.213581 -0.466501,0.240748 -0.122028,0.0374418 -0.186988,-0.0041896 -0.276425,-0.0519951 -0.077706,-0.0415432 -0.151575,-0.08291 -0.228223,-0.125732l-0.227473 -0.126394c-0.160395,-0.0772209 -0.206084,0.0887313 -0.21539,0.103814z"/>
 </g>
</svg>
