<?xml version="1.0" encoding="UTF-8"?>
<!DOCTYPE svg PUBLIC "-//W3C//DTD SVG 1.1//EN" "http://www.w3.org/Graphics/SVG/1.1/DTD/svg11.dtd">
<!-- Creator: CorelDRAW -->
<svg xmlns="http://www.w3.org/2000/svg" xml:space="preserve" width="20mm" height="25mm" style="shape-rendering:geometricPrecision; text-rendering:geometricPrecision; image-rendering:optimizeQuality; fill-rule:evenodd; clip-rule:evenodd"
viewBox="0 0 2.25335 2.81669"
 xmlns:xlink="http://www.w3.org/1999/xlink">
 <defs>
  <style type="text/css">
   <![CDATA[
    .str0 {stroke:#99FF00;stroke-width:0.0225335}
    .str1 {stroke:#FF6600;stroke-width:0.0225335}
    .fil1 {fill:#FEFEFE;fill-rule:nonzero}
    .fil19 {fill:#7D7D7D;fill-rule:nonzero}
    .fil15 {fill:#8D8D8D;fill-rule:nonzero}
    .fil17 {fill:#CCCCCC;fill-rule:nonzero}
    .fil16 {fill:#FF6600;fill-rule:nonzero}
    .fil2 {fill:#8D8D8D;fill-rule:nonzero;fill-opacity:0.000000}
    .fil31 {fill:#A7A7A7;fill-rule:nonzero;fill-opacity:0.000000}
    .fil3 {fill:#8D8D8D;fill-rule:nonzero;fill-opacity:0.078431}
    .fil30 {fill:#A3A3A3;fill-rule:nonzero;fill-opacity:0.078431}
    .fil4 {fill:#8D8D8D;fill-rule:nonzero;fill-opacity:0.152941}
    .fil29 {fill:#A0A0A0;fill-rule:nonzero;fill-opacity:0.152941}
    .fil5 {fill:#8D8D8D;fill-rule:nonzero;fill-opacity:0.231373}
    .fil28 {fill:#9E9E9E;fill-rule:nonzero;fill-opacity:0.231373}
    .fil6 {fill:#8D8D8D;fill-rule:nonzero;fill-opacity:0.305882}
    .fil27 {fill:#989898;fill-rule:nonzero;fill-opacity:0.305882}
    .fil7 {fill:#8D8D8D;fill-rule:nonzero;fill-opacity:0.384314}
    .fil26 {fill:#979797;fill-rule:nonzero;fill-opacity:0.384314}
    .fil8 {fill:#8D8D8D;fill-rule:nonzero;fill-opacity:0.462745}
    .fil25 {fill:#929292;fill-rule:nonzero;fill-opacity:0.462745}
    .fil9 {fill:#8D8D8D;fill-rule:nonzero;fill-opacity:0.537255}
    .fil24 {fill:#8F8F8F;fill-rule:nonzero;fill-opacity:0.537255}
    .fil10 {fill:#8D8D8D;fill-rule:nonzero;fill-opacity:0.615686}
    .fil23 {fill:#8A8A8A;fill-rule:nonzero;fill-opacity:0.694118}
    .fil11 {fill:#8D8D8D;fill-rule:nonzero;fill-opacity:0.694118}
    .fil22 {fill:#868686;fill-rule:nonzero;fill-opacity:0.768627}
    .fil12 {fill:#8D8D8D;fill-rule:nonzero;fill-opacity:0.768627}
    .fil21 {fill:#838383;fill-rule:nonzero;fill-opacity:0.847059}
    .fil13 {fill:#8D8D8D;fill-rule:nonzero;fill-opacity:0.847059}
    .fil20 {fill:#7F7F7F;fill-rule:nonzero;fill-opacity:0.921569}
    .fil14 {fill:#8D8D8D;fill-rule:nonzero;fill-opacity:0.921569}
    .fil0 {fill:url(#id1)}
    .fil18 {fill:url(#id2);fill-rule:nonzero}
   ]]>
  </style>
     <clipPath id="id0">
      <path d="M0.451672 0.511409l1.21966 0 0 0.741757 -1.21966 0 0 -0.741757z"/>
     </clipPath>
  <linearGradient id="id1" gradientUnits="userSpaceOnUse" x1="10.006" y1="-4.10976" x2="64.2998" y2="-4.10976">
   <stop offset="0" style="stop-color:#0FA89D"/>
   <stop offset="1" style="stop-color:#B6D66D"/>
  </linearGradient>
  <linearGradient id="id2" gradientUnits="userSpaceOnUse" x1="1.69489" y1="1.06215" x2="0.313407" y2="0.908674">
   <stop offset="0" style="stop-color:#F8F7EC"/>
   <stop offset="1" style="stop-color:#7F7F7D"/>
  </linearGradient>
 </defs>
<symbol id="Fm1-6-0" viewBox="10.006 -18.125 54.2938 28.0305">
 <polygon class="fil0" points="10.006,9.90547 64.2998,9.90547 64.2998,-18.125 10.006,-18.125 "/>
</symbol>
<symbol id="Fm3-10-0" viewBox="40.8067 -13.654 4.19319 0.99367">
 <path class="fil1" d="M44.9463 -13.654l-1.22456 0 -0.0743605 0 -2.79442 0c-0.0145454,0 -0.0463063,0.0229391 -0.0463063,0.0373605l0 0.94128c0,0.0145116 0.0317609,0.0150298 0.0463063,0.0150298l2.79442 0 0.0743605 0 1.22456 0c0.0145003,0 0.0535396,-0.0229391 0.0535396,-0.0373605l0 -0.94128c0,-0.0145116 -0.0390393,-0.0150298 -0.0535396,-0.0150298z"/>
</symbol>
<symbol id="Fm2-8-0" viewBox="28.6792 -13.675 11.7494 1.03559">
 <path class="fil1" d="M40.4286 -12.9867c0,0.191816 -0.155492,0.347342 -0.347275,0.347342l-11.0548 0c-0.191816,0 -0.347354,-0.155526 -0.347354,-0.347342l0 -0.340943c0,-0.191737 0.155537,-0.347309 0.347354,-0.347309l11.0548 0c0.191782,0 0.347275,0.155571 0.347275,0.347309l0 0.340943z"/>
</symbol>
 <g id="Capa_x0020_1">
  <metadata id="CorelCorpID_0Corel-Layer"/>
  <g id="_280504104">
   <g>
    <path id="_280732640" class="fil2" d="M2.25335 1.21913c0,0.849456 -1.1988,1.59607 -1.1988,1.59607 0,0 -0.822821,-0.836544 -0.822821,-1.59979 0,-0.565827 0.443572,-1.13987 0.989513,-1.13987 0.545975,0 1.03211,0.577759 1.03211,1.14359z"/>
    <path id="_280732568" class="fil3" d="M2.23236 1.20491c0,0.849456 -1.1826,1.60826 -1.1826,1.60826 0,0 -0.835575,-0.848453 -0.835575,-1.61168 0,-0.565827 0.443482,-1.13099 0.989445,-1.13099 0.545975,0 1.02873,0.568599 1.02873,1.13441z"/>
    <path id="_280732496" class="fil4" d="M2.21139 1.19071c0,0.849445 -1.16646,1.62039 -1.16646,1.62039 0,0 -0.848296,-0.860306 -0.848296,-1.62356 0,-0.565816 0.443369,-1.1221 0.989344,-1.1221 0.545964,0 1.02541,0.559439 1.02541,1.12527z"/>
    <path id="_280732424" class="fil5" d="M2.19041 1.17648c0,0.849456 -1.15028,1.63257 -1.15028,1.63257 0,0 -0.861061,-0.87217 -0.861061,-1.6354 0,-0.565838 0.443324,-1.11323 0.989276,-1.11323 0.545964,0 1.02206,0.550256 1.02206,1.11606z"/>
    <path id="_280732352" class="fil6" d="M2.16946 1.1623c0,0.849445 -1.13414,1.6447 -1.13414,1.6447 0,0 -0.873815,-0.884045 -0.873815,-1.64727 0,-0.56585 0.443245,-1.10435 0.98922,-1.10435 0.545986,0 1.01874,0.541085 1.01874,1.10692z"/>
    <path id="_280732280" class="fil7" d="M2.14844 1.14808c0,0.849456 -1.11795,1.65686 -1.11795,1.65686 0,0 -0.886524,-0.895909 -0.886524,-1.65914 0,-0.565838 0.443155,-1.09549 0.989119,-1.09549 0.545964,0 1.01536,0.531948 1.01536,1.09776z"/>
    <path id="_280732208" class="fil8" d="M2.12747 1.13387c0,0.849467 -1.10177,1.66902 -1.10177,1.66902 0,0 -0.8993,-0.907773 -0.8993,-1.67103 0,-0.565827 0.443121,-1.0866 0.989085,-1.0866 0.545941,0 1.01199,0.522777 1.01199,1.0886z"/>
    <path id="_280732136" class="fil9" d="M2.1065 1.11967c0,0.849445 -1.08561,1.68119 -1.08561,1.68119 0,0 -0.912054,-0.919659 -0.912054,-1.6829 0,-0.565827 0.44302,-1.07772 0.988983,-1.07772 0.545986,0 1.00868,0.513617 1.00868,1.07943z"/>
    <path id="_280732064" class="fil10" d="M2.08552 1.10546c0,0.849456 -1.06945,1.69332 -1.06945,1.69332 0,0 -0.924785,-0.931512 -0.924785,-1.69475 0,-0.565838 0.442941,-1.06884 0.988905,-1.06884 0.545986,0 1.00533,0.504457 1.00533,1.07027z"/>
    <path id="_280506096" class="fil11" d="M2.06453 1.09124c0,0.849445 -1.05327,1.7055 -1.05327,1.7055 0,0 -0.937528,-0.943387 -0.937528,-1.70664 0,-0.565827 0.442884,-1.05995 0.988848,-1.05995 0.545953,0 1.00195,0.495286 1.00195,1.06109z"/>
    <path id="_280506024" class="fil12" d="M2.04357 1.07704c0,0.849445 -1.03711,1.71765 -1.03711,1.71765 0,0 -0.950293,-0.955239 -0.950293,-1.71852 0,-0.565816 0.442806,-1.05109 0.988769,-1.05109 0.545986,0 0.998639,0.486126 0.998639,1.05195z"/>
    <path id="_280505952" class="fil13" d="M2.02259 1.06284c0,0.849445 -1.02094,1.72979 -1.02094,1.72979 0,0 -0.963036,-0.967115 -0.963036,-1.73038 0,-0.565805 0.442727,-1.0422 0.988679,-1.0422 0.545986,0 0.995293,0.476966 0.995293,1.04278z"/>
    <path id="_280505880" class="fil14" d="M2.00163 1.04862c0,0.849467 -1.00481,1.74196 -1.00481,1.74196 0,0 -0.975745,-0.978979 -0.975745,-1.74223 0,-0.565838 0.442625,-1.03334 0.9886,-1.03334 0.545964,0 0.991958,0.467795 0.991958,1.03361z"/>
    <path id="_280505832" class="fil15" d="M1.98064 1.03441c0,0.849445 -0.988623,1.75414 -0.988623,1.75414 0,0 -0.988521,-0.990865 -0.988521,-1.75414 0,-0.565816 0.44258,-1.02445 0.988544,-1.02445 0.545986,0 0.9886,0.458635 0.9886,1.02445z"/>
   </g>
   <path id="_280505712" class="fil16 str0" d="M1.99273 1.04062c0,0.849422 -0.988589,1.75413 -0.988589,1.75413 0,0 -0.988555,-0.990899 -0.988555,-1.75413 0,-0.565838 0.442603,-1.02446 0.988567,-1.02446 0.545975,0 0.988578,0.458624 0.988578,1.02446z"/>
   <path id="_280505640" class="fil17" d="M1.00368 2.81669l-0.0103879 -0.0103541c-0.0405377,-0.0406391 -0.993287,-1.00437 -0.993287,-1.76571 0,-0.573793 0.450456,-1.04062 1.00415,-1.04062 0.55367,0 1.00415,0.466826 1.00415,1.04062 0,0.846921 -0.98388,1.75709 -0.993783,1.7662l-0.0108386 0.00986967zm0.000473203 -2.78438l0 0c-0.536477,0 -0.972973,0.452326 -0.972973,1.00832 0,0.70576 0.868012,1.62309 0.973413,1.73188 0.107282,-0.101694 0.972568,-0.947172 0.972568,-1.73188 0,-0.555991 -0.436474,-1.00832 -0.973007,-1.00832z"/>
   <path id="_280505568" class="fil18" d="M1.69006 0.985434c0,0.392567 -0.307064,0.710762 -0.685908,0.710762 -0.37881,0 -0.685897,-0.318195 -0.685897,-0.710762 0,-0.392556 0.307086,-0.710796 0.685897,-0.710796 0.378844,0 0.685908,0.31824 0.685908,0.710796z"/>
   <path id="_280505496" class="fil17" d="M1.00415 1.71235c-0.38681,0 -0.701467,-0.326093 -0.701467,-0.726919 0,-0.400814 0.314658,-0.726941 0.701467,-0.726941 0.386821,0 0.701512,0.326127 0.701512,0.726941 0,0.400826 -0.314691,0.726919 -0.701512,0.726919zm0 -1.42154l0 0c-0.369594,0 -0.670247,0.31157 -0.670247,0.694617 0,0.383058 0.300653,0.694606 0.670247,0.694606 0.369628,0 0.670304,-0.311548 0.670304,-0.694606 0,-0.383047 -0.300676,-0.694617 -0.670304,-0.694617z"/>
   <g>
    <path id="_280505424" class="fil19" d="M0.465407 1.07377c0,-0.375363 0.297442,-0.679644 0.664366,-0.679644 0.11856,0 0.229763,0.0318961 0.32606,0.0875201 -0.118706,-0.113445 -0.278018,-0.183028 -0.45334,-0.183028 -0.366924,0 -0.664366,0.304303 -0.664366,0.679666 0,0.254088 0.136361,0.475457 0.33825,0.59209 -0.129759,-0.124047 -0.21097,-0.300552 -0.21097,-0.496604z"/>
    <path id="_280505352" class="fil20" d="M0.469271 1.07618c0,-0.375352 0.297453,-0.679644 0.664366,-0.679644 0.11856,0 0.229763,0.0318961 0.326071,0.0875426 -0.118718,-0.113467 -0.278041,-0.183039 -0.453351,-0.183039 -0.366924,0 -0.664366,0.304292 -0.664366,0.679666 0,0.25411 0.136361,0.475479 0.338261,0.592101 -0.129759,-0.124058 -0.210981,-0.300552 -0.210981,-0.496627z"/>
    <path id="_280505280" class="fil21" d="M0.473158 1.07861c0,-0.37534 0.297431,-0.679632 0.664366,-0.679632 0.11856,0 0.229718,0.0318961 0.326071,0.0875201 -0.11874,-0.113456 -0.278052,-0.183039 -0.453374,-0.183039 -0.366913,0 -0.664366,0.304303 -0.664366,0.679678 0,0.254088 0.136384,0.475445 0.338284,0.59209 -0.12977,-0.124058 -0.210981,-0.300563 -0.210981,-0.496615z"/>
    <path id="_280505208" class="fil22" d="M0.477023 1.08104c0,-0.375363 0.297431,-0.679655 0.664377,-0.679655 0.118549,0 0.22974,0.0319074 0.32606,0.0875313 -0.11874,-0.113456 -0.278052,-0.183028 -0.453351,-0.183028 -0.366924,0 -0.6644,0.304303 -0.6644,0.679666 0,0.254088 0.136406,0.475457 0.338295,0.59209 -0.129759,-0.124058 -0.210981,-0.300552 -0.210981,-0.496604z"/>
    <path id="_280505136" class="fil23" d="M0.480898 1.08347c0,-0.375352 0.297419,-0.679655 0.664366,-0.679655 0.11856,0 0.22974,0.0319074 0.32606,0.0875426 -0.118706,-0.113467 -0.278052,-0.183028 -0.45334,-0.183028 -0.366924,0 -0.664389,0.304292 -0.664389,0.679655 0,0.254099 0.136395,0.475479 0.338273,0.592101 -0.129737,-0.124058 -0.21097,-0.300574 -0.21097,-0.496615z"/>
    <path id="_280505064" class="fil10" d="M0.484785 1.08589c0,-0.375352 0.297419,-0.679644 0.664343,-0.679644 0.118582,0 0.22974,0.0319074 0.326082,0.0875313 -0.118729,-0.113467 -0.278052,-0.183039 -0.453374,-0.183039 -0.366913,0 -0.664377,0.304303 -0.664377,0.679666 0,0.254099 0.136406,0.475457 0.338295,0.592101 -0.129759,-0.124058 -0.21097,-0.300574 -0.21097,-0.496615z"/>
    <path id="_280504992" class="fil24" d="M0.48865 1.08832c0,-0.375374 0.297431,-0.679655 0.664343,-0.679655 0.118582,0 0.22974,0.0318961 0.326093,0.0875313 -0.11874,-0.113479 -0.278052,-0.183039 -0.453374,-0.183039 -0.366913,0 -0.664389,0.304303 -0.664389,0.679678 0,0.254088 0.136406,0.475457 0.338306,0.59209 -0.12977,-0.124058 -0.210981,-0.300563 -0.210981,-0.496604z"/>
    <path id="_280504920" class="fil25" d="M0.492514 1.09074c0,-0.375352 0.297431,-0.679655 0.664366,-0.679655 0.11856,0 0.22974,0.0319074 0.326071,0.0875426 -0.118718,-0.113479 -0.278052,-0.183039 -0.453351,-0.183039 -0.366924,0 -0.664411,0.304303 -0.664411,0.679655 0,0.25411 0.136429,0.47549 0.338306,0.592101 -0.129748,-0.124047 -0.210981,-0.300563 -0.210981,-0.496604z"/>
    <path id="_280504848" class="fil26" d="M0.49639 1.09318c0,-0.375363 0.297419,-0.679666 0.664366,-0.679666 0.11856,0 0.22974,0.0319074 0.32606,0.0875426 -0.118718,-0.113467 -0.278052,-0.183039 -0.453351,-0.183039 -0.366924,0 -0.664411,0.304303 -0.664411,0.679666 0,0.254099 0.136429,0.475479 0.338306,0.59209 -0.129737,-0.124047 -0.21097,-0.300563 -0.21097,-0.496593z"/>
    <path id="_280504776" class="fil27" d="M0.500277 1.09559c0,-0.375363 0.297419,-0.679655 0.664343,-0.679655 0.118582,0 0.22974,0.0318961 0.326082,0.0875426 -0.11874,-0.113479 -0.278052,-0.183039 -0.453374,-0.183039 -0.366913,0 -0.6644,0.304292 -0.6644,0.679666 0,0.254099 0.136429,0.475457 0.338318,0.592101 -0.12977,-0.124058 -0.21097,-0.300563 -0.21097,-0.496615z"/>
    <path id="_280504704" class="fil28" d="M0.504119 1.09802c0,-0.375352 0.297453,-0.679655 0.664389,-0.679655 0.11856,0 0.229718,0.0318961 0.326071,0.0875313 -0.118729,-0.113479 -0.278052,-0.183039 -0.453374,-0.183039 -0.366924,0 -0.664389,0.304303 -0.664389,0.679666 0,0.25411 0.136406,0.475479 0.338306,0.592101 -0.12977,-0.124036 -0.211004,-0.300574 -0.211004,-0.496604z"/>
    <path id="_280504632" class="fil29" d="M0.507984 1.10046c0,-0.375374 0.297453,-0.679666 0.664389,-0.679666 0.118537,0 0.22974,0.0319074 0.326071,0.0875313 -0.118718,-0.113467 -0.278052,-0.183028 -0.453351,-0.183028 -0.366947,0 -0.664411,0.304303 -0.664411,0.679655 0,0.25411 0.136406,0.47549 0.338295,0.592101 -0.129759,-0.124047 -0.210992,-0.300563 -0.210992,-0.496593z"/>
    <path id="_280504560" class="fil30" d="M0.511871 1.10288c0,-0.375363 0.297453,-0.679666 0.664389,-0.679666 0.118537,0 0.229729,0.0319074 0.326071,0.0875426 -0.118729,-0.113479 -0.278052,-0.183028 -0.453374,-0.183028 -0.366935,0 -0.664411,0.304292 -0.664411,0.679655 0,0.254099 0.136429,0.475457 0.338329,0.59209 -0.12977,-0.124047 -0.211004,-0.300574 -0.211004,-0.496593z"/>
    <path id="_280504536" class="fil31" d="M0.515735 1.1053c0,-0.375363 0.297453,-0.679655 0.664389,-0.679655 0.118537,0 0.229718,0.0318961 0.326071,0.0875313 -0.118718,-0.113479 -0.278052,-0.183039 -0.453396,-0.183039 -0.366913,0 -0.664377,0.304303 -0.664377,0.679666 0,0.25411 0.136418,0.475479 0.338318,0.59209 -0.12977,-0.124047 -0.211004,-0.300563 -0.211004,-0.496593z"/>
   </g>
   <g>
    <g style="clip-path:url(#id0)">
     <image id="_281025776" transform="matrix(1 0 0 1 -9.54833 -8.61256)" x="10" y="9.12397" width="1.21966" height="0.741757" xlink:href="infraestructura2_Images\infraestructura2_ImgID1.png"/>
    </g>
   </g>
   <g>
    <path id="_280504296" class="fil16 str1" d="M1.56154 0.950406l-0.0528974 0 -0.00338002 -0.0105344c-0.0421827,-0.140237 -0.153284,-0.27439 -0.283021,-0.341754 -0.00740225,-0.00381943 -0.0162354,-0.00352649 -0.023356,0.000799939 -0.00713185,0.00431516 -0.0114695,0.0120329 -0.0114695,0.020359l0 0.337597c-0.00119427,0.0123596 -0.00343636,0.0211251 -0.00732338,0.0288654 -0.012923,0.0248432 -0.0384647,0.0409321 -0.065088,0.0409321l-0.157498 0c-0.0256318,0 -0.0493709,-0.0132384 -0.0619783,-0.0345664 -0.000214068,-0.000360536 -0.000439403,-0.000721072 -0.000676005,-0.00108161 -0.00476583,-0.00714311 -0.00779659,-0.0156833 -0.0101288,-0.0285274 -9.01339e-005,-0.000540804 -0.000191535,-0.00105907 -0.000338002,-0.00156608 -0.000495737,-0.00205055 -0.00051827,-0.00353776 -0.00051827,-0.00794305l0 -0.334972c0,-0.00835992 -0.00438276,-0.0161002 -0.0115484,-0.0204041 -0.00717691,-0.00432643 -0.0160326,-0.0045743 -0.0234236,-0.000653471 -0.129827,0.0686483 -0.240849,0.203241 -0.282795,0.342554l-0.00345889 0.0108949 -0.0538438 0c-0.013137,0 -0.0238179,0.0106696 -0.0238179,0.0238292l0 0.156213c0,0.0131708 0.0106809,0.0238292 0.0238179,0.0238292l1.05274 0c0.0131596,0 0.0238179,-0.0106583 0.0238179,-0.0238292l0 -0.156213c0,-0.0131596 -0.0106583,-0.0238292 -0.0238179,-0.0238292z"/>
    <path id="_280504248" class="fil16 str1" d="M0.974055 0.983925l0.122244 0c0.0175874,0 0.0322792,-0.00977953 0.0400758,-0.0244376 0.00392083,-0.00683891 0.00588124,-0.0136778 0.00588124,-0.0215082l0 -0.345562c0,-0.00781912 -0.00196041,-0.0146806 -0.00389829,-0.0214969 -0.00879933,-0.022511 -0.0313103,-0.0391294 -0.0567393,-0.0391294l-0.107564 0c-0.0234574,0 -0.0430277,0.0175987 -0.0449656,0.0400871 0,0.00198295 -0.000980207,0.00392083 -0.000980207,0.00585871l0 0.360243c0,0.00976827 0.00291809,0.0185676 0.00781912,0.0264092 0.00879933,0.0117174 0.0224884,0.0195365 0.0381267,0.0195365z"/>
   </g>
  </g>
 </g>
</svg>
