<?xml version="1.0" encoding="UTF-8"?>
<!DOCTYPE svg PUBLIC "-//W3C//DTD SVG 1.1//EN" "http://www.w3.org/Graphics/SVG/1.1/DTD/svg11.dtd">
<!-- Creator: CorelDRAW -->
<svg xmlns="http://www.w3.org/2000/svg" xml:space="preserve" width="20mm" height="25mm" style="shape-rendering:geometricPrecision; text-rendering:geometricPrecision; image-rendering:optimizeQuality; fill-rule:evenodd; clip-rule:evenodd"
viewBox="0 0 1.76808 2.2101"
 xmlns:xlink="http://www.w3.org/1999/xlink">
 <defs>
  <style type="text/css">
   <![CDATA[
    .str0 {stroke:#99FF00;stroke-width:0.0176808}
    .str1 {stroke:red;stroke-width:0.0176808}
    .fil1 {fill:#FEFEFE;fill-rule:nonzero}
    .fil19 {fill:#7D7D7D;fill-rule:nonzero}
    .fil15 {fill:#8D8D8D;fill-rule:nonzero}
    .fil17 {fill:#CCCCCC;fill-rule:nonzero}
    .fil16 {fill:red;fill-rule:nonzero}
    .fil2 {fill:#8D8D8D;fill-rule:nonzero;fill-opacity:0.000000}
    .fil31 {fill:#A7A7A7;fill-rule:nonzero;fill-opacity:0.000000}
    .fil3 {fill:#8D8D8D;fill-rule:nonzero;fill-opacity:0.078431}
    .fil30 {fill:#A3A3A3;fill-rule:nonzero;fill-opacity:0.078431}
    .fil4 {fill:#8D8D8D;fill-rule:nonzero;fill-opacity:0.152941}
    .fil29 {fill:#A0A0A0;fill-rule:nonzero;fill-opacity:0.152941}
    .fil5 {fill:#8D8D8D;fill-rule:nonzero;fill-opacity:0.231373}
    .fil28 {fill:#9E9E9E;fill-rule:nonzero;fill-opacity:0.231373}
    .fil6 {fill:#8D8D8D;fill-rule:nonzero;fill-opacity:0.305882}
    .fil27 {fill:#989898;fill-rule:nonzero;fill-opacity:0.305882}
    .fil7 {fill:#8D8D8D;fill-rule:nonzero;fill-opacity:0.384314}
    .fil26 {fill:#979797;fill-rule:nonzero;fill-opacity:0.384314}
    .fil8 {fill:#8D8D8D;fill-rule:nonzero;fill-opacity:0.462745}
    .fil25 {fill:#929292;fill-rule:nonzero;fill-opacity:0.462745}
    .fil9 {fill:#8D8D8D;fill-rule:nonzero;fill-opacity:0.537255}
    .fil24 {fill:#8F8F8F;fill-rule:nonzero;fill-opacity:0.537255}
    .fil10 {fill:#8D8D8D;fill-rule:nonzero;fill-opacity:0.615686}
    .fil23 {fill:#8A8A8A;fill-rule:nonzero;fill-opacity:0.694118}
    .fil11 {fill:#8D8D8D;fill-rule:nonzero;fill-opacity:0.694118}
    .fil22 {fill:#868686;fill-rule:nonzero;fill-opacity:0.768627}
    .fil12 {fill:#8D8D8D;fill-rule:nonzero;fill-opacity:0.768627}
    .fil21 {fill:#838383;fill-rule:nonzero;fill-opacity:0.847059}
    .fil13 {fill:#8D8D8D;fill-rule:nonzero;fill-opacity:0.847059}
    .fil20 {fill:#7F7F7F;fill-rule:nonzero;fill-opacity:0.921569}
    .fil14 {fill:#8D8D8D;fill-rule:nonzero;fill-opacity:0.921569}
    .fil0 {fill:url(#id1)}
    .fil18 {fill:url(#id2);fill-rule:nonzero}
   ]]>
  </style>
     <clipPath id="id0">
      <path d="M0.330375 0.350752l0.907291 0 0 0.907291 -0.907291 0 0 -0.907291z"/>
     </clipPath>
  <linearGradient id="id1" gradientUnits="userSpaceOnUse" x1="10.0047" y1="-3.23837" x2="52.6061" y2="-3.23837">
   <stop offset="0" style="stop-color:#0FA89D"/>
   <stop offset="1" style="stop-color:#B6D66D"/>
  </linearGradient>
  <linearGradient id="id2" gradientUnits="userSpaceOnUse" x1="1.32989" y1="0.833412" x2="0.245914" y2="0.712988">
   <stop offset="0" style="stop-color:#F8F7EC"/>
   <stop offset="1" style="stop-color:#7F7F7D"/>
  </linearGradient>
 </defs>
<symbol id="Fm1-6-0" viewBox="10.0047 -14.2354 42.6015 21.994">
 <polygon class="fil0" points="10.0047,7.75864 52.6061,7.75864 52.6061,-14.2354 10.0047,-14.2354 "/>
</symbol>
<symbol id="Fm3-10-0" viewBox="34.1723 -10.7272 3.29017 0.77968">
 <path class="fil1" d="M37.4205 -10.7272l-0.960847 0 -0.0583467 0 -2.19263 0c-0.011413,0 -0.0363341,0.0179991 -0.0363341,0.0293148l0 0.738572c0,0.0113865 0.0249211,0.0117931 0.0363341,0.0117931l2.19263 0 0.0583467 0 0.960847 0c0.0113776,0 0.0420096,-0.0179991 0.0420096,-0.0293148l0 -0.738572c0,-0.0113865 -0.030632,-0.0117931 -0.0420096,-0.0117931z"/>
</symbol>
<symbol id="Fm2-8-0" viewBox="24.6566 -10.7437 9.21914 0.812575">
 <path class="fil1" d="M33.8757 -10.2036c0,0.150508 -0.122007,0.272541 -0.272488,0.272541l-8.6741 0c-0.150508,0 -0.27255,-0.122033 -0.27255,-0.272541l0 -0.26752c0,-0.150446 0.122042,-0.272515 0.27255,-0.272515l8.6741 0c0.150481,0 0.272488,0.122068 0.272488,0.272515l0 0.26752z"/>
</symbol>
 <g id="Capa_x0020_1">
  <metadata id="CorelCorpID_0Corel-Layer"/>
  <g id="_280501200">
   <g>
    <path id="_280503720" class="fil2" d="M1.76808 0.956586c0,0.666523 -0.940638,1.25235 -0.940638,1.25235 0,0 -0.645624,-0.656392 -0.645624,-1.25527 0,-0.443974 0.348047,-0.894393 0.776418,-0.894393 0.428398,0 0.809844,0.453336 0.809844,0.897311z"/>
    <path id="_280503648" class="fil3" d="M1.75161 0.945429c0,0.666523 -0.927925,1.26192 -0.927925,1.26192 0,0 -0.655631,-0.665736 -0.655631,-1.2646 0,-0.443974 0.347976,-0.887427 0.776365,-0.887427 0.428398,0 0.807191,0.446149 0.807191,0.890115z"/>
    <path id="_280503576" class="fil4" d="M1.73516 0.93429c0,0.666514 -0.915257,1.27144 -0.915257,1.27144 0,0 -0.665612,-0.675036 -0.665612,-1.27392 0,-0.443965 0.347888,-0.880452 0.776285,-0.880452 0.428389,0 0.804584,0.438962 0.804584,0.882936z"/>
    <path id="_280503504" class="fil5" d="M1.7187 0.923125c0,0.666523 -0.902562,1.28099 -0.902562,1.28099 0,0 -0.675628,-0.684345 -0.675628,-1.28321 0,-0.443983 0.347853,-0.873495 0.776232,-0.873495 0.428389,0 0.801958,0.431757 0.801958,0.875714z"/>
    <path id="_280503432" class="fil6" d="M1.70226 0.911995c0,0.666514 -0.889902,1.29051 -0.889902,1.29051 0,0 -0.685636,-0.693663 -0.685636,-1.29252 0,-0.443992 0.347791,-0.866528 0.776188,-0.866528 0.428406,0 0.79935,0.424561 0.79935,0.868544z"/>
    <path id="_280503360" class="fil7" d="M1.68577 0.900838c0,0.666523 -0.877199,1.30005 -0.877199,1.30005 0,0 -0.695608,-0.702972 -0.695608,-1.30184 0,-0.443983 0.34772,-0.859571 0.776109,-0.859571 0.428389,0 0.796698,0.417391 0.796698,0.861357z"/>
    <path id="_280503288" class="fil8" d="M1.66931 0.88969c0,0.666532 -0.864504,1.30959 -0.864504,1.30959 0,0 -0.705633,-0.712281 -0.705633,-1.31117 0,-0.443974 0.347693,-0.852596 0.776082,-0.852596 0.428371,0 0.794055,0.410195 0.794055,0.854169z"/>
    <path id="_280503216" class="fil9" d="M1.65286 0.878542c0,0.666514 -0.851818,1.31914 -0.851818,1.31914 0,0 -0.71564,-0.721607 -0.71564,-1.32048 0,-0.443974 0.347614,-0.84563 0.776003,-0.84563 0.428406,0 0.791456,0.403008 0.791456,0.846973z"/>
    <path id="_280503144" class="fil10" d="M1.6364 0.867395c0,0.666523 -0.839141,1.32866 -0.839141,1.32866 0,0 -0.72563,-0.730908 -0.72563,-1.32978 0,-0.443983 0.347552,-0.838663 0.775941,-0.838663 0.428406,0 0.78883,0.395821 0.78883,0.839786z"/>
    <path id="_280503072" class="fil11" d="M1.61993 0.856238c0,0.666514 -0.826446,1.33822 -0.826446,1.33822 0,0 -0.735628,-0.740225 -0.735628,-1.33911 0,-0.443974 0.347508,-0.831688 0.775896,-0.831688 0.42838,0 0.786178,0.388625 0.786178,0.832581z"/>
    <path id="_280503000" class="fil12" d="M1.60348 0.845099c0,0.666514 -0.813769,1.34775 -0.813769,1.34775 0,0 -0.745645,-0.749525 -0.745645,-1.34843 0,-0.443965 0.347446,-0.824731 0.775835,-0.824731 0.428406,0 0.783579,0.381437 0.783579,0.825412z"/>
    <path id="_280502928" class="fil13" d="M1.58702 0.833951c0,0.666514 -0.801074,1.35728 -0.801074,1.35728 0,0 -0.755643,-0.758843 -0.755643,-1.35774 0,-0.443957 0.347384,-0.817756 0.775764,-0.817756 0.428406,0 0.780953,0.37425 0.780953,0.818215z"/>
    <path id="_280502856" class="fil14" d="M1.57057 0.822795c0,0.666532 -0.788423,1.36682 -0.788423,1.36682 0,0 -0.765615,-0.768152 -0.765615,-1.36704 0,-0.443983 0.347304,-0.810807 0.775702,-0.810807 0.428389,0 0.778336,0.367054 0.778336,0.811019z"/>
    <path id="_280502808" class="fil15" d="M1.5541 0.811647c0,0.666514 -0.77572,1.37638 -0.77572,1.37638 0,0 -0.77564,-0.777479 -0.77564,-1.37638 0,-0.443965 0.347269,-0.803832 0.775658,-0.803832 0.428406,0 0.775702,0.359867 0.775702,0.803832z"/>
   </g>
   <path id="_280502688" class="fil16 str0" d="M1.56359 0.816518c0,0.666496 -0.775693,1.37637 -0.775693,1.37637 0,0 -0.775667,-0.777505 -0.775667,-1.37637 0,-0.443983 0.347287,-0.803841 0.775675,-0.803841 0.428398,0 0.775684,0.359858 0.775684,0.803841z"/>
   <path id="_280502616" class="fil17" d="M0.78753 2.2101l-0.00815086 -0.00812434c-0.0318078,-0.0318874 -0.77938,-0.788079 -0.77938,-1.38546 0,-0.450225 0.353449,-0.816518 0.787902,-0.816518 0.434436,0 0.787902,0.366294 0.787902,0.816518 0,0.664534 -0.771998,1.3787 -0.779769,1.38584l-0.00850448 0.0077442zm0.000371297 -2.18476l0 0c-0.420945,0 -0.76344,0.354916 -0.76344,0.791173 0,0.553772 0.681083,1.27355 0.763785,1.35891 0.0841784,-0.0797936 0.763122,-0.743196 0.763122,-1.35891 0,-0.436257 -0.342478,-0.791173 -0.763467,-0.791173z"/>
   <path id="_280502544" class="fil18" d="M1.3261 0.773218c0,0.308026 -0.240937,0.557697 -0.538195,0.557697 -0.297232,0 -0.538187,-0.249671 -0.538187,-0.557697 0,-0.308018 0.240954,-0.557724 0.538187,-0.557724 0.297259,0 0.538195,0.249706 0.538195,0.557724z"/>
   <path id="_280502472" class="fil17" d="M0.787902 1.34359c-0.303509,0 -0.550404,-0.255868 -0.550404,-0.570375 0,-0.314498 0.246895,-0.570392 0.550404,-0.570392 0.303518,0 0.550439,0.255895 0.550439,0.570392 0,0.314506 -0.246922,0.570375 -0.550439,0.570375zm0 -1.1154l0 0c-0.290001,0 -0.525907,0.244473 -0.525907,0.545029 0,0.300565 0.235906,0.54502 0.525907,0.54502 0.290027,0 0.525951,-0.244455 0.525951,-0.54502 0,-0.300556 -0.235924,-0.545029 -0.525951,-0.545029z"/>
   <g>
    <path id="_280502400" class="fil19" d="M0.36518 0.842527c0,-0.294527 0.233387,-0.53328 0.521293,-0.53328 0.0930277,0 0.180283,0.0250272 0.255842,0.0686723 -0.0931426,-0.0890141 -0.218146,-0.143612 -0.355712,-0.143612 -0.287906,0 -0.521293,0.238771 -0.521293,0.533298 0,0.199369 0.106996,0.373065 0.265407,0.464581 -0.101815,-0.0973329 -0.165537,-0.235827 -0.165537,-0.389659z"/>
    <path id="_280502328" class="fil20" d="M0.368212 0.844418c0,-0.294518 0.233396,-0.53328 0.521293,-0.53328 0.0930277,0 0.180283,0.0250272 0.25585,0.06869 -0.0931514,-0.0890318 -0.218164,-0.143621 -0.35572,-0.143621 -0.287906,0 -0.521293,0.238762 -0.521293,0.533298 0,0.199387 0.106996,0.373083 0.265416,0.46459 -0.101815,-0.0973418 -0.165546,-0.235827 -0.165546,-0.389677z"/>
    <path id="_280502256" class="fil21" d="M0.371262 0.846328c0,-0.294509 0.233378,-0.533271 0.521293,-0.533271 0.0930277,0 0.180247,0.0250272 0.25585,0.0686723 -0.0931691,-0.0890229 -0.218173,-0.143621 -0.355738,-0.143621 -0.287897,0 -0.521293,0.238771 -0.521293,0.533307 0,0.199369 0.107013,0.373057 0.265433,0.464581 -0.101824,-0.0973418 -0.165546,-0.235836 -0.165546,-0.389668z"/>
    <path id="_280502184" class="fil22" d="M0.374294 0.848238c0,-0.294527 0.233378,-0.533289 0.521301,-0.533289 0.0930188,0 0.180265,0.025036 0.255842,0.0686812 -0.0931691,-0.0890229 -0.218173,-0.143612 -0.35572,-0.143612 -0.287906,0 -0.521319,0.238771 -0.521319,0.533298 0,0.199369 0.107031,0.373065 0.265442,0.464581 -0.101815,-0.0973418 -0.165546,-0.235827 -0.165546,-0.389659z"/>
    <path id="_280502112" class="fil23" d="M0.377335 0.850138c0,-0.294518 0.233369,-0.533289 0.521293,-0.533289 0.0930277,0 0.180265,0.025036 0.255842,0.06869 -0.0931426,-0.0890318 -0.218173,-0.143612 -0.355712,-0.143612 -0.287906,0 -0.52131,0.238762 -0.52131,0.533289 0,0.199378 0.107022,0.373083 0.265425,0.46459 -0.101797,-0.0973418 -0.165537,-0.235845 -0.165537,-0.389668z"/>
    <path id="_280502040" class="fil10" d="M0.380385 0.852039c0,-0.294518 0.233369,-0.53328 0.521275,-0.53328 0.0930453,0 0.180265,0.025036 0.255859,0.0686812 -0.0931603,-0.0890318 -0.218173,-0.143621 -0.355738,-0.143621 -0.287897,0 -0.521301,0.238771 -0.521301,0.533298 0,0.199378 0.107031,0.373065 0.265442,0.46459 -0.101815,-0.0973418 -0.165537,-0.235845 -0.165537,-0.389668z"/>
    <path id="_280501968" class="fil24" d="M0.383418 0.853948c0,-0.294536 0.233378,-0.533289 0.521275,-0.533289 0.0930453,0 0.180265,0.0250272 0.255868,0.0686812 -0.0931691,-0.0890406 -0.218173,-0.143621 -0.355738,-0.143621 -0.287897,0 -0.52131,0.238771 -0.52131,0.533307 0,0.199369 0.107031,0.373065 0.265451,0.464581 -0.101824,-0.0973418 -0.165546,-0.235836 -0.165546,-0.389659z"/>
    <path id="_280501896" class="fil25" d="M0.38645 0.855849c0,-0.294518 0.233378,-0.533289 0.521293,-0.533289 0.0930277,0 0.180265,0.025036 0.25585,0.06869 -0.0931514,-0.0890406 -0.218173,-0.143621 -0.35572,-0.143621 -0.287906,0 -0.521328,0.238771 -0.521328,0.533289 0,0.199387 0.107049,0.373092 0.265451,0.46459 -0.101806,-0.0973329 -0.165546,-0.235836 -0.165546,-0.389659z"/>
    <path id="_280501824" class="fil26" d="M0.389491 0.857759c0,-0.294527 0.233369,-0.533298 0.521293,-0.533298 0.0930277,0 0.180265,0.025036 0.255842,0.06869 -0.0931514,-0.0890318 -0.218173,-0.143621 -0.35572,-0.143621 -0.287906,0 -0.521328,0.238771 -0.521328,0.533298 0,0.199378 0.107049,0.373083 0.265451,0.464581 -0.101797,-0.0973329 -0.165537,-0.235836 -0.165537,-0.38965z"/>
    <path id="_280501752" class="fil27" d="M0.392541 0.859651c0,-0.294527 0.233369,-0.533289 0.521275,-0.533289 0.0930453,0 0.180265,0.0250272 0.255859,0.06869 -0.0931691,-0.0890406 -0.218173,-0.143621 -0.355738,-0.143621 -0.287897,0 -0.521319,0.238762 -0.521319,0.533298 0,0.199378 0.107049,0.373065 0.26546,0.46459 -0.101824,-0.0973418 -0.165537,-0.235836 -0.165537,-0.389668z"/>
    <path id="_280501680" class="fil28" d="M0.395555 0.86156c0,-0.294518 0.233396,-0.533289 0.52131,-0.533289 0.0930277,0 0.180247,0.0250272 0.25585,0.0686812 -0.0931603,-0.0890406 -0.218173,-0.143621 -0.355738,-0.143621 -0.287906,0 -0.52131,0.238771 -0.52131,0.533298 0,0.199387 0.107031,0.373083 0.265451,0.46459 -0.101824,-0.0973241 -0.165563,-0.235845 -0.165563,-0.389659z"/>
    <path id="_280501608" class="fil29" d="M0.398588 0.86347c0,-0.294536 0.233396,-0.533298 0.52131,-0.533298 0.09301,0 0.180265,0.025036 0.25585,0.0686812 -0.0931514,-0.0890318 -0.218173,-0.143612 -0.35572,-0.143612 -0.287923,0 -0.521328,0.238771 -0.521328,0.533289 0,0.199387 0.107031,0.373092 0.265442,0.46459 -0.101815,-0.0973329 -0.165554,-0.235836 -0.165554,-0.38965z"/>
    <path id="_280501536" class="fil30" d="M0.401638 0.86537c0,-0.294527 0.233396,-0.533298 0.52131,-0.533298 0.09301,0 0.180256,0.025036 0.25585,0.06869 -0.0931603,-0.0890406 -0.218173,-0.143612 -0.355738,-0.143612 -0.287915,0 -0.521328,0.238762 -0.521328,0.533289 0,0.199378 0.107049,0.373065 0.265469,0.464581 -0.101824,-0.0973329 -0.165563,-0.235845 -0.165563,-0.38965z"/>
    <path id="_280501512" class="fil31" d="M0.40467 0.867271c0,-0.294527 0.233396,-0.533289 0.52131,-0.533289 0.09301,0 0.180247,0.0250272 0.25585,0.0686812 -0.0931514,-0.0890406 -0.218173,-0.143621 -0.355756,-0.143621 -0.287897,0 -0.521301,0.238771 -0.521301,0.533298 0,0.199387 0.10704,0.373083 0.26546,0.464581 -0.101824,-0.0973329 -0.165563,-0.235836 -0.165563,-0.38965z"/>
   </g>
   <g>
    <g style="clip-path:url(#id0)">
     <image id="_281025752" transform="matrix(1 0 0 1 -9.66962 -6.4694)" x="10" y="6.82016" width="0.907291" height="0.907291" xlink:href="salud2_Images\salud2_ImgID1.png"/>
    </g>
   </g>
   <path id="_280501272" class="fil16 str1" d="M1.12628 0.673825l-0.211666 0 0 -0.211684c0,-0.0239487 -0.0194135,-0.0433799 -0.0433799,-0.0433799l-0.174404 0c-0.0239133,0 -0.0433445,0.0194312 -0.0433445,0.0433799l0 0.211684 -0.211719 0c-0.0239487,0 -0.0433799,0.0194135 -0.0433799,0.0433799l0 0.174404c0,0.0239664 0.0194312,0.0433799 0.0433799,0.0433799l0.211719 0 0 0.211666c0,0.0239575 0.0194312,0.0433799 0.0433445,0.0433799l0.174404 0c0.0239664,0 0.0433799,-0.0194224 0.0433799,-0.0433799l0 -0.211666 0.211666 0c0.0239664,0 0.0433799,-0.0194135 0.0433799,-0.0433799l0 -0.174404c0,-0.0239664 -0.0194135,-0.0433799 -0.0433799,-0.0433799z"/>
  </g>
 </g>
</svg>
