<?xml version="1.0" encoding="UTF-8"?>
<!DOCTYPE svg PUBLIC "-//W3C//DTD SVG 1.1//EN" "http://www.w3.org/Graphics/SVG/1.1/DTD/svg11.dtd">
<!-- Creator: CorelDRAW -->
<svg xmlns="http://www.w3.org/2000/svg" xml:space="preserve" width="20mm" height="25mm" style="shape-rendering:geometricPrecision; text-rendering:geometricPrecision; image-rendering:optimizeQuality; fill-rule:evenodd; clip-rule:evenodd"
viewBox="0 0 4.40506 5.50633"
 xmlns:xlink="http://www.w3.org/1999/xlink">
 <defs>
  <style type="text/css">
   <![CDATA[
    .str0 {stroke:#99FF00;stroke-width:0.0440506}
    .str1 {stroke:#B3B3B3;stroke-width:0.0440506}
    .fil1 {fill:#FEFEFE;fill-rule:nonzero}
    .fil32 {fill:#333333;fill-rule:nonzero}
    .fil16 {fill:#4D4D4D;fill-rule:nonzero}
    .fil19 {fill:#7D7D7D;fill-rule:nonzero}
    .fil15 {fill:#8D8D8D;fill-rule:nonzero}
    .fil17 {fill:#CCCCCC;fill-rule:nonzero}
    .fil2 {fill:#8D8D8D;fill-rule:nonzero;fill-opacity:0.000000}
    .fil31 {fill:#A7A7A7;fill-rule:nonzero;fill-opacity:0.000000}
    .fil3 {fill:#8D8D8D;fill-rule:nonzero;fill-opacity:0.078431}
    .fil30 {fill:#A3A3A3;fill-rule:nonzero;fill-opacity:0.078431}
    .fil4 {fill:#8D8D8D;fill-rule:nonzero;fill-opacity:0.152941}
    .fil29 {fill:#A0A0A0;fill-rule:nonzero;fill-opacity:0.152941}
    .fil5 {fill:#8D8D8D;fill-rule:nonzero;fill-opacity:0.231373}
    .fil28 {fill:#9E9E9E;fill-rule:nonzero;fill-opacity:0.231373}
    .fil6 {fill:#8D8D8D;fill-rule:nonzero;fill-opacity:0.305882}
    .fil27 {fill:#989898;fill-rule:nonzero;fill-opacity:0.305882}
    .fil7 {fill:#8D8D8D;fill-rule:nonzero;fill-opacity:0.384314}
    .fil26 {fill:#979797;fill-rule:nonzero;fill-opacity:0.384314}
    .fil8 {fill:#8D8D8D;fill-rule:nonzero;fill-opacity:0.462745}
    .fil25 {fill:#929292;fill-rule:nonzero;fill-opacity:0.462745}
    .fil9 {fill:#8D8D8D;fill-rule:nonzero;fill-opacity:0.537255}
    .fil24 {fill:#8F8F8F;fill-rule:nonzero;fill-opacity:0.537255}
    .fil10 {fill:#8D8D8D;fill-rule:nonzero;fill-opacity:0.615686}
    .fil23 {fill:#8A8A8A;fill-rule:nonzero;fill-opacity:0.694118}
    .fil11 {fill:#8D8D8D;fill-rule:nonzero;fill-opacity:0.694118}
    .fil22 {fill:#868686;fill-rule:nonzero;fill-opacity:0.768627}
    .fil12 {fill:#8D8D8D;fill-rule:nonzero;fill-opacity:0.768627}
    .fil21 {fill:#838383;fill-rule:nonzero;fill-opacity:0.847059}
    .fil13 {fill:#8D8D8D;fill-rule:nonzero;fill-opacity:0.847059}
    .fil20 {fill:#7F7F7F;fill-rule:nonzero;fill-opacity:0.921569}
    .fil14 {fill:#8D8D8D;fill-rule:nonzero;fill-opacity:0.921569}
    .fil0 {fill:url(#id1)}
    .fil18 {fill:url(#id2);fill-rule:nonzero}
   ]]>
  </style>
    <clipPath id="id0">
     <path d="M0.895902 1.05468l2.16718 0 0 1.59913 -2.16718 0 0 -1.59913z"/>
    </clipPath>
  <linearGradient id="id1" gradientUnits="userSpaceOnUse" x1="10.0117" y1="-8.04675" x2="116.15" y2="-8.04675">
   <stop offset="0" style="stop-color:#0FA89D"/>
   <stop offset="1" style="stop-color:#B6D66D"/>
  </linearGradient>
  <linearGradient id="id2" gradientUnits="userSpaceOnUse" x1="3.31333" y1="2.07639" x2="0.612678" y2="1.77636">
   <stop offset="0" style="stop-color:#F8F7EC"/>
   <stop offset="1" style="stop-color:#7F7F7D"/>
  </linearGradient>
 </defs>
<symbol id="Fm1-6-0" viewBox="10.0117 -35.4451 106.139 54.7967">
 <polygon class="fil0" points="10.0117,19.3516 116.15,19.3516 116.15,-35.4451 10.0117,-35.4451 "/>
</symbol>
<symbol id="Fm3-10-0" viewBox="70.2238 -26.7047 8.19725 1.94252">
 <path class="fil1" d="M78.3164 -26.7047l-2.39389 0 -0.145367 0 -5.46281 0c-0.0284347,0 -0.090524,0.0448435 -0.090524,0.0730359l0 1.84011c0,0.0283686 0.0620894,0.0293818 0.090524,0.0293818l5.46281 0 0.145367 0 2.39389 0c0.0283466,0 0.104664,-0.0448435 0.104664,-0.0730359l0 -1.84011c0,-0.0283686 -0.0763177,-0.0293818 -0.104664,-0.0293818z"/>
</symbol>
<symbol id="Fm2-8-0" viewBox="46.5159 -26.7457 22.9689 2.02448">
 <path class="fil1" d="M69.4848 -25.4003c0,0.374981 -0.303971,0.679018 -0.678886,0.679018l-21.611 0c-0.374981,0 -0.67904,-0.304037 -0.67904,-0.679018l0 -0.666508c0,-0.374827 0.304059,-0.678952 0.67904,-0.678952l21.611 0c0.374915,0 0.678886,0.304126 0.678886,0.678952l0 0.666508z"/>
</symbol>
 <g id="Capa_x0020_1">
  <metadata id="CorelCorpID_0Corel-Layer"/>
  <g id="_280737608">
   <path id="_280738568" class="fil2" d="M4.40506 2.38327c0,1.6606 -2.34354,3.12015 -2.34354,3.12015 0,0 -1.60853,-1.63536 -1.60853,-3.12742 0,-1.10613 0.867137,-2.22832 1.9344,-2.22832 1.06732,0 2.01767,1.12946 2.01767,2.23559z"/>
   <path id="_280738496" class="fil3" d="M4.36403 2.35548c0,1.6606 -2.31187,3.14398 -2.31187,3.14398 0,0 -1.63346,-1.65864 -1.63346,-3.15068 0,-1.10613 0.86696,-2.21097 1.93426,-2.21097 1.06732,0 2.01107,1.11155 2.01107,2.21766z"/>
   <path id="_280738424" class="fil4" d="M4.32304 2.32772c0,1.66058 -2.2803,3.1677 -2.2803,3.1677 0,0 -1.65833,-1.68181 -1.65833,-3.17389 0,-1.10611 0.86674,-2.19359 1.93407,-2.19359 1.0673,0 2.00457,1.09365 2.00457,2.19978z"/>
   <path id="_280738352" class="fil5" d="M4.28203 2.29991c0,1.6606 -2.24867,3.19151 -2.24867,3.19151 0,0 -1.68328,-1.705 -1.68328,-3.19704 0,-1.10616 0.866652,-2.17626 1.93393,-2.17626 1.0673,0 1.99803,1.07569 1.99803,2.18178z"/>
   <path id="_280738280" class="fil6" d="M4.24106 2.27218c0,1.66058 -2.21713,3.21521 -2.21713,3.21521 0,0 -1.70822,-1.72822 -1.70822,-3.22023 0,-1.10618 0.866498,-2.1589 1.93382,-2.1589 1.06735,0 1.99153,1.05777 1.99153,2.16392z"/>
   <path id="_280738208" class="fil7" d="M4.19999 2.24438c0,1.6606 -2.18548,3.239 -2.18548,3.239 0,0 -1.73306,-1.75141 -1.73306,-3.24345 0,-1.10616 0.866322,-2.14157 1.93362,-2.14157 1.0673,0 1.98492,1.0399 1.98492,2.14601z"/>
   <path id="_280738136" class="fil8" d="M4.15897 2.21661c0,1.66062 -2.15386,3.26276 -2.15386,3.26276 0,0 -1.75804,-1.7746 -1.75804,-3.26668 0,-1.10613 0.866256,-2.12419 1.93356,-2.12419 1.06726,0 1.97834,1.02197 1.97834,2.12811z"/>
   <path id="_280738064" class="fil9" d="M4.11799 2.18883c0,1.66058 -2.12225,3.28655 -2.12225,3.28655 0,0 -1.78297,-1.79784 -1.78297,-3.2899 0,-1.10613 0.866057,-2.10683 1.93336,-2.10683 1.06735,0 1.97186,1.00407 1.97186,2.11018z"/>
   <path id="_280737992" class="fil10" d="M4.07697 2.16106c0,1.6606 -2.09067,3.31027 -2.09067,3.31027 0,0 -1.80786,-1.82101 -1.80786,-3.31307 0,-1.10616 0.865903,-2.08948 1.93321,-2.08948 1.06735,0 1.96532,0.986161 1.96532,2.09227z"/>
   <path id="_280737920" class="fil11" d="M4.03594 2.13326c0,1.66058 -2.05904,3.33408 -2.05904,3.33408 0,0 -1.83277,-1.84422 -1.83277,-3.33631 0,-1.10613 0.865793,-2.0721 1.9331,-2.0721 1.06728,0 1.95871,0.968233 1.95871,2.07432z"/>
   <path id="_280737848" class="fil12" d="M3.99497 2.10551c0,1.66058 -2.02745,3.35783 -2.02745,3.35783 0,0 -1.85773,-1.86739 -1.85773,-3.35952 0,-1.10611 0.865639,-2.05476 1.93294,-2.05476 1.06735,0 1.95224,0.950326 1.95224,2.05646z"/>
   <path id="_280737776" class="fil13" d="M3.95396 2.07774c0,1.66058 -1.99582,3.38157 -1.99582,3.38157 0,0 -1.88264,-1.89061 -1.88264,-3.38271 0,-1.10609 0.865485,-2.03739 1.93277,-2.03739 1.06735,0 1.94569,0.93242 1.94569,2.03853z"/>
   <path id="_280737704" class="fil14" d="M3.91297 2.04994c0,1.66062 -1.96431,3.40536 -1.96431,3.40536 0,0 -1.90748,-1.9138 -1.90748,-3.40588 0,-1.10616 0.865287,-2.02007 1.93261,-2.02007 1.0673,0 1.93917,0.914491 1.93917,2.0206z"/>
   <path id="_280737656" class="fil15" d="M3.87194 2.02217c0,1.66058 -1.93266,3.42917 -1.93266,3.42917 0,0 -1.93246,-1.93704 -1.93246,-3.42917 0,-1.10611 0.865198,-2.0027 1.9325,-2.0027 1.06735,0 1.93261,0.896585 1.93261,2.0027z"/>
  </g>
  <path class="fil16 str0" d="M3.89557 2.0343c0,1.66053 -1.93259,3.42914 -1.93259,3.42914 0,0 -1.93252,-1.9371 -1.93252,-3.42914 0,-1.10616 0.865243,-2.00272 1.93255,-2.00272 1.06732,0 1.93257,0.896563 1.93257,2.00272z"/>
  <path class="fil17" d="M1.96208 5.50633l-0.0203073 -0.0202413c-0.0792471,-0.0794453 -1.94177,-1.96345 -1.94177,-3.45179 0,-1.12171 0.880594,-2.0343 1.96301,-2.0343 1.08237,0 1.96301,0.912597 1.96301,2.0343 0,1.65564 -1.92338,3.43494 -1.94274,3.45273l-0.0211884 0.0192942zm0.000925063 -5.44318l0 0c-1.04876,0 -1.90206,0.88425 -1.90206,1.97116 0,1.37969 1.69687,3.17297 1.90292,3.38564 0.209725,-0.198801 1.90127,-1.85162 1.90127,-3.38564 0,-1.08691 -0.853261,-1.97116 -1.90213,-1.97116z"/>
  <path class="fil18" d="M3.30389 1.92642c0,0.767428 -0.600278,1.38947 -1.34088,1.38947 -0.740535,0 -1.34086,-0.622039 -1.34086,-1.38947 0,-0.767406 0.600322,-1.38953 1.34086,-1.38953 0.740601,0 1.34088,0.622127 1.34088,1.38953z"/>
  <path class="fil17" d="M1.96301 3.34747c-0.756173,0 -1.3713,-0.637479 -1.3713,-1.42105 0,-0.783551 0.615123,-1.4211 1.3713,-1.4211 0.756195,0 1.37138,0.637545 1.37138,1.4211 0,0.783573 -0.615189,1.42105 -1.37138,1.42105zm0 -2.77896l0 0c-0.722518,0 -1.31026,0.609088 -1.31026,1.3579 0,0.748839 0.587746,1.35788 1.31026,1.35788 0.722585,0 1.31037,-0.609044 1.31037,-1.35788 0,-0.748817 -0.58779,-1.3579 -1.31037,-1.3579z"/>
  <g id="_280736312">
   <path id="_280737248" class="fil19" d="M0.909822 2.0991c0,-0.733795 0.581468,-1.32863 1.29877,-1.32863 0.231772,0 0.449162,0.0623537 0.637413,0.171093 -0.232059,-0.221773 -0.543497,-0.357801 -0.886233,-0.357801 -0.717298,0 -1.29877,0.594882 -1.29877,1.32868 0,0.496715 0.266572,0.929468 0.661244,1.15747 -0.253666,-0.242499 -0.412424,-0.587547 -0.412424,-0.97081z"/>
   <path id="_280737176" class="fil20" d="M0.917376 2.10381c0,-0.733773 0.58149,-1.32863 1.29877,-1.32863 0.231772,0 0.449162,0.0623537 0.637435,0.171137 -0.232081,-0.221817 -0.543541,-0.357823 -0.886255,-0.357823 -0.717298,0 -1.29877,0.59486 -1.29877,1.32868 0,0.496759 0.266572,0.929512 0.661266,1.1575 -0.253666,-0.242521 -0.412446,-0.587547 -0.412446,-0.970854z"/>
   <path id="_280737104" class="fil21" d="M0.924975 2.10857c0,-0.733751 0.581446,-1.32861 1.29877,-1.32861 0.231772,0 0.449074,0.0623537 0.637435,0.171093 -0.232125,-0.221795 -0.543563,-0.357823 -0.886299,-0.357823 -0.717276,0 -1.29877,0.594882 -1.29877,1.3287 0,0.496715 0.266616,0.929446 0.66131,1.15747 -0.253688,-0.242521 -0.412446,-0.587569 -0.412446,-0.970832z"/>
   <path id="_280737032" class="fil22" d="M0.93253 2.11333c0,-0.733795 0.581446,-1.32866 1.29879,-1.32866 0.23175,0 0.449118,0.0623757 0.637413,0.171115 -0.232125,-0.221795 -0.543563,-0.357801 -0.886255,-0.357801 -0.717298,0 -1.29883,0.594882 -1.29883,1.32868 0,0.496715 0.26666,0.929468 0.661332,1.15747 -0.253666,-0.242521 -0.412446,-0.587547 -0.412446,-0.97081z"/>
   <path id="_280736960" class="fil23" d="M0.940107 2.11806c0,-0.733773 0.581424,-1.32866 1.29877,-1.32866 0.231772,0 0.449118,0.0623757 0.637413,0.171137 -0.232059,-0.221817 -0.543563,-0.357801 -0.886233,-0.357801 -0.717298,0 -1.29881,0.59486 -1.29881,1.32866 0,0.496737 0.266638,0.929512 0.661288,1.1575 -0.253622,-0.242521 -0.412424,-0.587591 -0.412424,-0.970832z"/>
   <path id="_280736888" class="fil10" d="M0.947705 2.1228c0,-0.733773 0.581424,-1.32863 1.29872,-1.32863 0.231816,0 0.449118,0.0623757 0.637457,0.171115 -0.232103,-0.221817 -0.543563,-0.357823 -0.886299,-0.357823 -0.717276,0 -1.29879,0.594882 -1.29879,1.32868 0,0.496737 0.26666,0.929468 0.661332,1.1575 -0.253666,-0.242521 -0.412424,-0.587591 -0.412424,-0.970832z"/>
   <path id="_280736816" class="fil24" d="M0.95526 2.12756c0,-0.733817 0.581446,-1.32866 1.29872,-1.32866 0.231816,0 0.449118,0.0623537 0.637479,0.171115 -0.232125,-0.221839 -0.543563,-0.357823 -0.886299,-0.357823 -0.717276,0 -1.29881,0.594882 -1.29881,1.3287 0,0.496715 0.26666,0.929468 0.661354,1.15747 -0.253688,-0.242521 -0.412446,-0.587569 -0.412446,-0.97081z"/>
   <path id="_280736744" class="fil25" d="M0.962815 2.13229c0,-0.733773 0.581446,-1.32866 1.29877,-1.32866 0.231772,0 0.449118,0.0623757 0.637435,0.171137 -0.232081,-0.221839 -0.543563,-0.357823 -0.886255,-0.357823 -0.717298,0 -1.29885,0.594882 -1.29885,1.32866 0,0.496759 0.266705,0.929534 0.661354,1.1575 -0.253644,-0.242499 -0.412446,-0.587569 -0.412446,-0.97081z"/>
   <path id="_280736672" class="fil26" d="M0.970391 2.13705c0,-0.733795 0.581424,-1.32868 1.29877,-1.32868 0.231772,0 0.449118,0.0623757 0.637413,0.171137 -0.232081,-0.221817 -0.543563,-0.357823 -0.886255,-0.357823 -0.717298,0 -1.29885,0.594882 -1.29885,1.32868 0,0.496737 0.266705,0.929512 0.661354,1.15747 -0.253622,-0.242499 -0.412424,-0.587569 -0.412424,-0.970788z"/>
   <path id="_280736600" class="fil27" d="M0.97799 2.14176c0,-0.733795 0.581424,-1.32866 1.29872,-1.32866 0.231816,0 0.449118,0.0623537 0.637457,0.171137 -0.232125,-0.221839 -0.543563,-0.357823 -0.886299,-0.357823 -0.717276,0 -1.29883,0.59486 -1.29883,1.32868 0,0.496737 0.266705,0.929468 0.661376,1.1575 -0.253688,-0.242521 -0.412424,-0.587569 -0.412424,-0.970832z"/>
   <path id="_280736528" class="fil28" d="M0.985501 2.14652c0,-0.733773 0.58149,-1.32866 1.29881,-1.32866 0.231772,0 0.449074,0.0623537 0.637435,0.171115 -0.232103,-0.221839 -0.543563,-0.357823 -0.886299,-0.357823 -0.717298,0 -1.29881,0.594882 -1.29881,1.32868 0,0.496759 0.26666,0.929512 0.661354,1.1575 -0.253688,-0.242477 -0.41249,-0.587591 -0.41249,-0.97081z"/>
   <path id="_280736456" class="fil29" d="M0.993055 2.15128c0,-0.733817 0.58149,-1.32868 1.29881,-1.32868 0.231728,0 0.449118,0.0623757 0.637435,0.171115 -0.232081,-0.221817 -0.543563,-0.357801 -0.886255,-0.357801 -0.717343,0 -1.29885,0.594882 -1.29885,1.32866 0,0.496759 0.26666,0.929534 0.661332,1.1575 -0.253666,-0.242499 -0.412468,-0.587569 -0.412468,-0.970788z"/>
   <path id="_280736384" class="fil30" d="M1.00065 2.15601c0,-0.733795 0.58149,-1.32868 1.29881,-1.32868 0.231728,0 0.449096,0.0623757 0.637435,0.171137 -0.232103,-0.221839 -0.543563,-0.357801 -0.886299,-0.357801 -0.71732,0 -1.29885,0.59486 -1.29885,1.32866 0,0.496737 0.266705,0.929468 0.661398,1.15747 -0.253688,-0.242499 -0.41249,-0.587591 -0.41249,-0.970788z"/>
   <path id="_280736360" class="fil31" d="M1.00821 2.16075c0,-0.733795 0.58149,-1.32866 1.29881,-1.32866 0.231728,0 0.449074,0.0623537 0.637435,0.171115 -0.232081,-0.221839 -0.543563,-0.357823 -0.886343,-0.357823 -0.717276,0 -1.29879,0.594882 -1.29879,1.32868 0,0.496759 0.266683,0.929512 0.661376,1.15747 -0.253688,-0.242499 -0.41249,-0.587569 -0.41249,-0.970788z"/>
  </g>
  <g id="_280736120">
   <g style="clip-path:url(#id0)">
    <image id="_282244032" transform="matrix(1 0 0 1 -9.1041 -16.6201)" x="10" y="17.6747" width="2.16718" height="1.59913" xlink:href="vialidad2_Images\vialidad2_ImgID1.png"/>
   </g>
  </g>
  <path class="fil32 str1" d="M2.13835 1.95942c0.000682785,0.0084357 -0.00213646,0.0154397 -0.0084357,0.0210562 -0.00632127,0.00561646 -0.0136997,0.00836962 -0.0220694,0.00836962l-0.256705 0c-0.00839165,0 -0.0157701,-0.00275316 -0.0220694,-0.00836962 -0.00632127,-0.00561646 -0.00914051,-0.0126205 -0.00845772,-0.0210562l0 -0.00420684 0.0252851 -0.336591c0.000682785,-0.00909646 0.00451519,-0.0170035 0.0116073,-0.0236772 0.00700405,-0.0066957 0.0150653,-0.0100215 0.0241397,-0.0100215l0.195673 0c0.00907443,0 0.0171797,0.00332582 0.0242058,0.0100215 0.00700405,0.00667367 0.0108805,0.0145808 0.0115633,0.0236772l0.025263 0.336591 0 0.00420684zm0.77104 0.369232l-0.438656 -1.0982c-0.00561646,-0.0133253 -0.014757,-0.0248886 -0.0273554,-0.0346899 -0.0126205,-0.00982329 -0.0259899,-0.014757 -0.039998,-0.014757l-0.356634 0c0.00914051,0 0.0172238,0.00334785 0.0242058,0.00997747 0.00700405,0.00667367 0.0109246,0.0145808 0.0116294,0.0236992l0.0157481 0.201994c0.000748861,0.00977924 -0.00207038,0.0178405 -0.00836962,0.0241397 -0.00632127,0.00629924 -0.0140081,0.00944886 -0.0231486,0.00944886l-0.174661 0c-0.00911848,0 -0.0168273,-0.00314962 -0.0231266,-0.00944886 -0.00629924,-0.00629924 -0.00911848,-0.0143605 -0.00836962,-0.0241397l0.0157481 -0.201994c0.000682785,-0.00911848 0.00455924,-0.0170256 0.0115413,-0.0236992 0.00707013,-0.00662962 0.0150873,-0.00997747 0.0242058,-0.00997747l-0.35659 0c-0.0140301,0 -0.0273334,0.00493367 -0.0399539,0.014757 -0.0126205,0.00980127 -0.021761,0.0213646 -0.0273775,0.0346899l-0.438634 1.0982c-0.018237,0.043544 -0.0273775,0.0841808 -0.0273775,0.122064 0,0.0512089 0.0161446,0.0767803 0.0484337,0.0767803l0.740513 0c-0.00909646,0 -0.0168494,-0.00332582 -0.0231486,-0.00999949 -0.00627722,-0.0066957 -0.00907443,-0.0145808 -0.00839165,-0.0236332l0.0210562 -0.269282c0.00070481,-0.00911848 0.00455924,-0.0170256 0.0115413,-0.0237213 0.00702608,-0.0066957 0.0150873,-0.00995544 0.0242278,-0.00995544l0.286087 0c0.00914051,0 0.0172018,0.00325975 0.0241838,0.00995544 0.00700405,0.0066957 0.0108805,0.0146028 0.0116294,0.0237213l0.0210342 0.269282c0.00070481,0.0090524 -0.00213646,0.0169375 -0.00841367,0.0236332 -0.00629924,0.00667367 -0.0140081,0.00999949 -0.0231706,0.00999949l0.740579 0c0.0322451,0 0.0483896,-0.0255714 0.0483896,-0.0767803 0,-0.0378835 -0.00914051,-0.0785203 -0.0273775,-0.122064z"/>
 </g>
</svg>
